<?xml version="1.0" standalone="no"?><!DOCTYPE svg PUBLIC "-//W3C//DTD SVG 1.1//EN" "http://www.w3.org/Graphics/SVG/1.1/DTD/svg11.dtd"><svg t="1678084948303" class="icon" viewBox="0 0 1024 1024" version="1.1" xmlns="http://www.w3.org/2000/svg" p-id="18161" width="128" height="128" xmlns:xlink="http://www.w3.org/1999/xlink"><path d="M925.1 160.9H134.8c-19.5 0-35.3-15.8-35.3-35.3 0-19.5 15.8-35.3 35.3-35.3h790.3c19.5 0 35.3 15.8 35.3 35.3 0 19.5-15.8 35.3-35.3 35.3zM925.3 949.3L561.2 639.8c-16-13.6-39.5-13.6-55.4 0L141.7 949.3c-13.8 11.8-35.1 1.9-35.1-16.2V253c0-23.6 19.1-42.7 42.7-42.7h768.4c23.6 0 42.7 19.1 42.7 42.7v680c0 18.2-21.3 28-35.1 16.3z" fill="#FFCC00" p-id="18162"></path><path d="M78.3 377.5c-3.9 0-7.1-3.2-7.1-7.1V238.9c0-27.4 22.3-49.7 49.7-49.7h528.3c3.9 0 7.1 3.2 7.1 7.1s-3.2 7.1-7.1 7.1H121c-19.6 0-35.6 16-35.6 35.6v131.5c0 3.8-3.2 7-7.1 7zM78.3 442.6c-3.9 0-7.1-3.2-7.1-7.1V429c0-3.9 3.2-7.1 7.1-7.1 3.9 0 7.1 3.2 7.1 7.1v6.5c0 4-3.2 7.1-7.1 7.1zM99.7 947.3c-4 0-8.1-0.9-12-2.7-10.2-4.7-16.5-14.6-16.5-25.7V466.1c0-3.9 3.2-7.1 7.1-7.1 3.9 0 7.1 3.2 7.1 7.1v452.8c0 5.7 3.1 10.5 8.3 12.9 5.2 2.4 10.9 1.6 15.2-2.1L473 620.2c18.7-15.9 45.9-15.9 64.6 0l153 130c3 2.5 3.3 7 0.8 9.9-2.5 3-7 3.3-9.9 0.8l-153-130a35.615 35.615 0 0 0-46.3 0L118 940.5c-5.3 4.5-11.7 6.8-18.3 6.8zM910.7 947.3c-6.6 0-13-2.3-18.3-6.8L758 826.3c-3-2.5-3.3-7-0.8-9.9 2.5-3 7-3.3 9.9-0.8l134.4 114.3c4.3 3.7 10 4.5 15.2 2.1 5.2-2.4 8.3-7.2 8.3-12.9v-680c0-19.6-16-35.6-35.6-35.6H739c-3.9 0-7.1-3.2-7.1-7.1s3.2-7.1 7.1-7.1h150.5c27.4 0 49.7 22.3 49.7 49.7v680c0 11.2-6.3 21.1-16.5 25.7-3.8 1.8-7.9 2.6-12 2.6zM710 203.3h-3.1c-3.9 0-7.1-3.2-7.1-7.1s3.2-7.1 7.1-7.1h3.1c3.9 0 7.1 3.2 7.1 7.1s-3.2 7.1-7.1 7.1z" p-id="18163"></path><path d="M134.8 475.5c-3.9 0-7.1-3.2-7.1-7.1v-46.7c0-3.9 3.2-7.1 7.1-7.1s7.1 3.2 7.1 7.1v46.7c-0.1 3.9-3.2 7.1-7.1 7.1zM721.4 738.4c-1.6 0-3.2-0.6-4.6-1.7l-54.7-46.6c-3-2.5-3.3-7-0.8-10s7-3.3 10-0.8L726 726c3 2.5 3.3 7 0.8 10-1.4 1.5-3.4 2.4-5.4 2.4z" fill="#FFFFFF" p-id="18164"></path><path d="M127.7 501.8a7.1 6.7 0 1 0 14.2 0 7.1 6.7 0 1 0-14.2 0Z" fill="#FFFFFF" p-id="18165"></path><path d="M501.4 153.9H106.5c-23.3 0-42.3-19-42.3-42.3s19-42.3 42.3-42.3h174.1c3.9 0 7.1 3.2 7.1 7.1 0 3.9-3.2 7.1-7.1 7.1H106.5c-15.5-0.2-28.2 12.5-28.2 28s12.7 28.2 28.2 28.2h394.9c3.9 0 7.1 3.2 7.1 7.1 0 3.9-3.2 7.1-7.1 7.1zM896.8 153.9h-326c-3.9 0-7.1-3.2-7.1-7.1 0-3.9 3.2-7.1 7.1-7.1h326.1c15.6 0 28.2-12.7 28.2-28.2s-12.7-28.2-28.2-28.2H391.4c-3.9 0-7.1-3.2-7.1-7.1 0-3.9 3.2-7.1 7.1-7.1h505.4c23.3 0 42.3 19 42.3 42.3s-18.9 42.5-42.3 42.5zM352.9 83.3h-3.2c-3.9 0-7.1-3.2-7.1-7.1 0-3.9 3.2-7.1 7.1-7.1h3.2c3.9 0 7.1 3.2 7.1 7.1-0.1 4-3.2 7.1-7.1 7.1z" p-id="18166"></path></svg>