<?xml version="1.0" standalone="no"?><!DOCTYPE svg PUBLIC "-//W3C//DTD SVG 1.1//EN" "http://www.w3.org/Graphics/SVG/1.1/DTD/svg11.dtd"><svg t="1678089230765" class="icon" viewBox="0 0 1024 1024" version="1.1" xmlns="http://www.w3.org/2000/svg" p-id="75111" xmlns:xlink="http://www.w3.org/1999/xlink" width="128" height="128"><path d="M235.46654 308.353398v249.397513H39.548923v-179.50965c0-38.589925 31.295939-69.887864 69.887863-69.887863h35.72593z" fill="#BED8FB" p-id="75112"></path><path d="M984.451077 393.055232v548.776928c0 45.389911-36.777928 82.16784-82.145839 82.16784H227.330556c-38.775924 0-71.267861-26.867948-79.901844-63.005877l-0.329999-46.975908-1.915997-279.755454V82.16784C145.184716 36.777928 181.962645 0 227.330556 0h364.065289c32.717936 0 138.681729 90.345824 232.345546 185.493638 85.465833 86.84383 160.709686 177.685653 160.709686 207.561594z" fill="#DDEAFB" p-id="75113"></path><path d="M984.451077 393.055232v201.029608c0-0.226-0.02-0.453999-0.02-0.699999C978.249089 346.719323 777.323482 335.305345 711.61961 269.599473l112.123781-84.103835c85.463833 86.84183 160.707686 177.683653 160.707686 207.559594z" fill="#CBE2FF" p-id="75114"></path><path d="M591.385845 0H390.356238c0.226 0 0.453999 0.02 0.699998 0.02 246.665518 6.181988 258.079496 207.107595 323.785368 272.811467l84.103836-112.123781C712.101609 75.243853 621.259787 0 591.385845 0z" fill="#CBE2FF" p-id="75115"></path><path d="M984.449077 393.065232v34.753932c0-73.171857-59.335884-132.505741-132.505741-132.505741h-80.647842c-45.367911 0-82.16184-36.793928-82.16184-82.161839V132.505741C689.133654 59.333884 629.79977 0 556.627913 0h34.753932c62.579878 0 122.615761 24.865951 166.865674 69.113865l157.085693 157.085693a236.007539 236.007539 0 0 1 69.115865 166.865674z" fill="#BED8FB" p-id="75116"></path><path d="M701.41163 621.816786v184.27764c0 59.605884-48.315906 107.921789-107.921789 107.921789H147.092713l-1.915997-279.755454v-120.365765h448.313125c59.605884 0 107.921789 48.313906 107.921789 107.92179z" fill="#CBE2FF" p-id="75117"></path><path d="M771.297494 556.048914v184.27764c0 59.605884-48.315906 107.921789-107.92179 107.921789H109.448786c-2.079996 0-4.119992-0.082-6.159988-0.287999-35.70593-3.089994-63.725876-33.067935-63.725875-69.599864v-400.119219c0 19.285962 7.829985 36.755928 20.47996 49.407904 11.269978 11.289978 26.393948 18.749963 43.245915 20.19196 2.039996 0.206 4.079992 0.287999 6.159988 0.288h553.926918c59.607884-0.002 107.921789 48.313906 107.92179 107.919789z" fill="#DD636E" p-id="75118"></path><path d="M103.288798 447.839125v400.121219c-35.70593-3.089994-63.725876-33.067935-63.725875-69.599864v-400.119219c0 19.285962 7.829985 36.755928 20.47996 49.407904 11.269978 11.289978 26.391948 18.747963 43.245915 20.18996z" fill="#DA4A54" p-id="75119"></path><path d="M646.447737 565.100896a15.45197 15.45197 0 1 0 0-30.903939H566.779893a15.44997 15.44997 0 0 0-15.45197 15.451969v196.567617a15.45197 15.45197 0 1 0 30.90394 0v-84.691835h57.887887a15.45197 15.45197 0 1 0 0-30.90394h-57.887887v-65.517872h64.215874zM419.83418 534.196957H364.160289a15.45997 15.45997 0 0 0-15.45397 15.481969V743.026549c0 1.203998 0.152 2.369995 0.411999 3.493993a15.44997 15.44997 0 0 0 4.551991 10.665979 15.45397 15.45397 0 0 0 10.887979 4.485991h0.058c1.679997-0.006 41.315919-0.158 57.113888-0.435999 27.421946-0.477999 51.839899-12.901975 68.755866-34.979931 15.58997-20.34796 24.177953-48.163906 24.177953-78.321847 0.002-68.031867-38.107926-113.737778-94.829815-113.737778z m1.359997 196.137617c-9.395982 0.164-27.915945 0.285999-41.233919 0.357999-0.076-22.545956-0.204-63.817875-0.204-82.973838 0-16.029969-0.072-59.255884-0.113999-82.615839h40.191921c30.90594 0 63.927875 21.759958 63.927875 82.831839-0.002 47.869907-25.72995 81.75584-62.567878 82.399839zM251.04051 532.746959H195.904617a15.44997 15.44997 0 0 0-15.449969 15.41997l-0.004 0.034v198.017614a15.45197 15.45197 0 1 0 30.903939 0v-70.643862c12.823975-0.07 30.60994-0.16 39.683923-0.16 39.935922 0 72.425859-31.999938 72.425858-71.333861s-32.487937-71.333861-72.423858-71.333861z m0 111.761782c-9.023982 0-26.563948 0.086-39.387923 0.156-0.07-13.167974-0.158-31.377939-0.158-40.585921 0-7.767985-0.05-26.731948-0.09-40.427921h39.637923c22.507956 0 41.521919 18.513964 41.521919 40.427921s-19.015963 40.429921-41.523919 40.429921z" fill="#475959" p-id="75120"></path></svg>